<?xml version="1.0" encoding="UTF-8"?>
<svg version="1.1" xmlns="http://www.w3.org/2000/svg" width="220" height="229">
<path d="M0 0 C4.69826936 2.21935394 8.8657464 5.04291794 13.1484375 7.97241211 C14.08251938 8.60378082 15.01660126 9.23514954 15.97898865 9.88565063 C17.94874838 11.21890647 19.91623853 12.55552077 21.8815918 13.89526367 C24.88306692 15.94116017 27.89103024 17.97719913 30.90039062 20.01147461 C32.81679274 21.31038373 34.73282106 22.60984456 36.6484375 23.90991211 C37.54438126 24.51733246 38.44032501 25.12475281 39.36341858 25.75057983 C41.00143163 26.86805721 42.63383044 27.99383352 44.25901794 29.12988281 C45.95445406 30.31094874 47.67705804 31.4529305 49.40673828 32.58325195 C51.33203125 34.57397461 51.33203125 34.57397461 51.8996582 37.59838867 C51.87347412 38.75048828 51.84729004 39.90258789 51.8203125 41.08959961 C51.80419922 42.33999023 51.78808594 43.59038086 51.77148438 44.87866211 C51.72958984 46.18061523 51.68769531 47.48256836 51.64453125 48.82397461 C51.62197266 50.14139648 51.59941406 51.45881836 51.57617188 52.81616211 C51.51722719 56.06990865 51.43498178 59.32137132 51.33203125 62.57397461 C47.7565676 61.92859902 45.30929428 60.43868729 42.296875 58.44116211 C41.32169922 57.79920898 40.34652344 57.15725586 39.34179688 56.49584961 C38.32794922 55.82038086 37.31410156 55.14491211 36.26953125 54.44897461 C34.27905184 53.13325602 32.28816746 51.81814986 30.296875 50.50366211 C29.41636475 49.9182666 28.53585449 49.33287109 27.62866211 48.72973633 C22.89205291 45.63233136 18.11126537 42.60506473 13.33203125 39.57397461 C13.33425186 40.62600067 13.33647247 41.67802673 13.33876038 42.76193237 C13.35934107 52.846614 13.3741671 62.93129118 13.38384342 73.0159893 C13.38898583 78.19629693 13.39591869 83.37658715 13.4074707 88.55688477 C13.4618446 113.58418613 13.26898042 138.5626078 12.33203125 163.57397461 C3.75203125 163.57397461 -4.82796875 163.57397461 -13.66796875 163.57397461 C-14.16296875 102.68897461 -14.16296875 102.68897461 -14.66796875 40.57397461 C-23.21083353 45.99699066 -23.21083353 45.99699066 -31.66796875 51.53881836 C-32.65667969 52.19301758 -33.64539063 52.8472168 -34.6640625 53.52124023 C-36.70097875 54.87079658 -38.73474137 56.22512262 -40.765625 57.58374023 C-41.74402344 58.22891602 -42.72242187 58.8740918 -43.73046875 59.53881836 C-44.60832031 60.12268311 -45.48617187 60.70654785 -46.390625 61.30810547 C-48.66796875 62.57397461 -48.66796875 62.57397461 -51.66796875 62.57397461 C-51.94217788 58.59161437 -52.14044147 54.61296867 -52.2722168 50.62329102 C-52.3540542 48.60879491 -52.49392028 46.59692544 -52.63476562 44.58569336 C-52.89858937 35.04007048 -52.89858937 35.04007048 -49.66479492 31.1875 C-46.77184085 29.06377071 -43.79814969 27.32835603 -40.66796875 25.57397461 C-38.35464173 24.05425472 -36.09176591 22.4639427 -33.8203125 20.88256836 C-32.62714769 20.07241704 -31.43247009 19.26448946 -30.23632812 18.45874023 C-29.63844482 18.0556665 -29.04056152 17.65259277 -28.42456055 17.23730469 C-27.82426025 16.83278076 -27.22395996 16.42825684 -26.60546875 16.01147461 C-24.79027992 14.78653184 -22.97549012 13.56101479 -21.16177368 12.33389282 C-19.98623188 11.54005474 -18.80882961 10.748964 -17.62948608 9.96078491 C-14.95025595 8.16261215 -12.34067238 6.32242539 -9.78173828 4.35571289 C-8.9204834 3.69684082 -8.05922852 3.03796875 -7.171875 2.35913086 C-6.0727478 1.47753296 -6.0727478 1.47753296 -4.95141602 0.578125 C-2.66796875 -0.42602539 -2.66796875 -0.42602539 0 0 Z " fill="#D45400" transform="translate(138.66796875,62.426025390625)"/>
<path d="M0 0 C8.91 0 17.82 0 27 0 C27 30.69 27 61.38 27 93 C21.78818099 93.8686365 17.16778351 94.18320937 11.9375 94.1875 C11.14794922 94.19974609 10.35839844 94.21199219 9.54492188 94.22460938 C1.47151236 94.24491133 1.47151236 94.24491133 -2 92 C-4.37256512 89.34426158 -6.39603418 86.4766975 -8.4375 83.5625 C-9.66886685 81.84606428 -10.90065062 80.12992759 -12.1328125 78.4140625 C-12.76477539 77.5262207 -13.39673828 76.63837891 -14.04785156 75.72363281 C-17.25001046 71.25598841 -20.53590593 66.85067194 -23.8125 62.4375 C-24.98743344 60.8541664 -26.16075611 59.2696355 -27.33203125 57.68359375 C-27.82421143 57.01900146 -28.3163916 56.35440918 -28.82348633 55.66967773 C-33.00128063 49.74066026 -32.14632042 41.2327961 -32.09765625 34.24609375 C-32.0962413 33.45977066 -32.09482635 32.67344757 -32.09336853 31.86329651 C-32.08783672 29.38798985 -32.07529775 26.91277863 -32.0625 24.4375 C-32.05747616 22.74414194 -32.05291481 21.05078245 -32.04882812 19.35742188 C-32.03788978 15.2382453 -32.02067362 11.11913875 -32 7 C-28.25517265 8.24827578 -27.74848317 9.48011626 -25.62890625 12.75 C-24.97083984 13.75289062 -24.31277344 14.75578125 -23.63476562 15.7890625 C-22.60899414 17.37847656 -22.60899414 17.37847656 -21.5625 19 C-14.93793463 29.1835424 -8.01683814 39.05947931 -1 49 C-0.67 32.83 -0.34 16.66 0 0 Z " fill="#320080" transform="translate(190,133)"/>
<path d="M0 0 C9.9 0 19.8 0 30 0 C30.02257029 11.68272987 30.04092631 23.36544531 30.05181217 35.04819202 C30.05703618 40.47264731 30.06412514 45.89708693 30.07543945 51.3215332 C30.08628537 56.55401959 30.09228047 61.7864909 30.09487724 67.01898766 C30.0967284 69.01771978 30.10034313 71.01645105 30.10573006 73.01517677 C30.11296306 75.80937119 30.11398998 78.60350285 30.11352539 81.39770508 C30.11712067 82.22848572 30.12071594 83.05926636 30.12442017 83.91522217 C30.1184839 87.20319433 30.04726152 89.85821544 29 93 C26.02035616 94.16048847 23.07122824 94.12875837 19.90234375 94.1328125 C18.45311523 94.13474609 18.45311523 94.13474609 16.97460938 94.13671875 C15.97236328 94.13285156 14.97011719 94.12898438 13.9375 94.125 C12.93138672 94.12886719 11.92527344 94.13273437 10.88867188 94.13671875 C9.92380859 94.13542969 8.95894531 94.13414062 7.96484375 94.1328125 C7.0843335 94.13168457 6.20382324 94.13055664 5.29663086 94.12939453 C3 94 3 94 0 93 C0 62.31 0 31.62 0 0 Z " fill="#320080" transform="translate(43,133)"/>
<path d="M0 0 C9.57 0 19.14 0 29 0 C29 30.69 29 61.38 29 93 C26.54308837 94.22845582 24.91268822 94.12929202 22.16796875 94.1328125 C20.72260742 94.13474609 20.72260742 94.13474609 19.24804688 94.13671875 C18.23806641 94.13285156 17.22808594 94.12898438 16.1875 94.125 C15.18912109 94.12886719 14.19074219 94.13273437 13.16210938 94.13671875 C12.19466797 94.13542969 11.22722656 94.13414062 10.23046875 94.1328125 C9.34770264 94.13168457 8.46493652 94.13055664 7.55541992 94.12939453 C5 94 5 94 0 93 C0 62.31 0 31.62 0 0 Z " fill="#320080" transform="translate(83,133)"/>
<path d="M0 0 C0.81726562 -0.00128906 1.63453125 -0.00257813 2.4765625 -0.00390625 C3.3221875 -0.00003906 4.1678125 0.00382813 5.0390625 0.0078125 C5.87695312 0.00394531 6.71484375 0.00007812 7.578125 -0.00390625 C8.39796875 -0.00261719 9.2178125 -0.00132812 10.0625 0 C10.80161621 0.00112793 11.54073242 0.00225586 12.30224609 0.00341797 C15.11061555 0.15727737 17.88974972 0.67042704 20.6640625 1.1328125 C20.6640625 31.8228125 20.6640625 62.5128125 20.6640625 94.1328125 C11.0940625 94.1328125 1.5240625 94.1328125 -8.3359375 94.1328125 C-8.3359375 63.4428125 -8.3359375 32.7528125 -8.3359375 1.1328125 C-5.2087941 0.35102665 -3.12050249 0.00477663 0 0 Z " fill="#320080" transform="translate(11.3359375,131.8671875)"/>
<path d="M0 0 C4.27973379 2.98231106 8.11147996 6.35198139 11.84765625 9.984375 C11.09198573 13.77068202 9.72168352 15.3884794 6.84765625 17.984375 C3.15518536 16.35792949 0.25539222 14.03788692 -2.90234375 11.546875 C-12.05685819 4.60173825 -19.47896647 2.45073911 -31.15234375 3.984375 C-38.84307979 6.50486832 -44.61634535 10.7854221 -50.21484375 16.54296875 C-52.15234375 17.984375 -52.15234375 17.984375 -54.26171875 17.8671875 C-57.05018312 16.56513595 -58.38647037 14.44398435 -60.15234375 11.984375 C-56.64812639 3.95971723 -47.76438873 -1.30517471 -40.15234375 -5.015625 C-25.71976244 -10.36997176 -12.97421651 -7.99991216 0 0 Z " fill="#32007F" transform="translate(161.15234375,10.015625)"/>
<path d="M0 0 C5.58053944 3.84469041 5.58053944 3.84469041 7.8515625 6.09375 C7.8515625 10.09375 7.8515625 10.09375 6.6640625 11.90625 C4.8515625 13.09375 4.8515625 13.09375 2.515625 12.8828125 C-0.54229423 11.97709449 -2.17503877 10.72334856 -4.5859375 8.65625 C-9.46503162 4.74172144 -13.11800276 2.81664555 -19.4609375 3.15625 C-25.90455916 4.06900585 -31.05625036 7.32701419 -35.9609375 11.46875 C-38.1484375 13.09375 -38.1484375 13.09375 -40.3359375 12.96875 C-42.1484375 12.09375 -42.1484375 12.09375 -44.1484375 10.09375 C-43.85474043 6.5106458 -42.28695732 4.89721968 -39.6484375 2.59375 C-27.32906281 -7.73148131 -13.59247026 -8.22968423 0 0 Z " fill="#32007F" transform="translate(155.1484375,22.90625)"/>
<path d="M0 0 C1.69082753 1.19752775 3.35040566 2.43893833 5.00390625 3.6875 C4.67390625 5.0075 4.34390625 6.3275 4.00390625 7.6875 C0.00390625 7.6875 0.00390625 7.6875 -2.74609375 5.75 C-6.58299863 3.31504113 -9.47026054 2.45114121 -13.99609375 2.6875 C-18.20644014 4.0909488 -21.59887194 5.83383368 -24.99609375 8.6875 C-26.31609375 8.0275 -27.63609375 7.3675 -28.99609375 6.6875 C-28.61541578 4.06820828 -28.20905057 2.89558367 -26.2890625 1.01953125 C-25.59425781 0.51808594 -24.89945312 0.01664063 -24.18359375 -0.5 C-23.15298828 -1.26376953 -23.15298828 -1.26376953 -22.1015625 -2.04296875 C-14.78176919 -6.45657325 -6.81319583 -4.47990958 0 0 Z " fill="#31007E" transform="translate(148.99609375,35.3125)"/>
<path d="M0 0 C2.375 1.625 2.375 1.625 4 4 C4.61195145 7.6717087 4.48706506 9.28813568 2.375 12.375 C-0.71186432 14.48706506 -2.3282913 14.61195145 -6 14 C-8.375 12.375 -8.375 12.375 -10 10 C-10.61195145 6.3282913 -10.48706506 4.71186432 -8.375 1.625 C-5.28813568 -0.48706506 -3.6717087 -0.61195145 0 0 Z " fill="#31007E" transform="translate(140,42)"/>
</svg>
